<mxfile host="Electron" agent="Mozilla/5.0 (Windows NT 10.0; Win64; x64) AppleWebKit/537.36 (KHTML, like Gecko) draw.io/28.0.6 Chrome/138.0.7204.100 Electron/37.2.3 Safari/537.36" version="28.0.6">
  <diagram name="Page-1" id="5weRKy30AS8mB8510-Bc">
    <mxGraphModel dx="1042" dy="626" grid="1" gridSize="10" guides="1" tooltips="1" connect="1" arrows="1" fold="1" page="1" pageScale="1" pageWidth="1920" pageHeight="1200" math="0" shadow="0">
      <root>
        <mxCell id="0" />
        <mxCell id="1" parent="0" />
        <mxCell id="egtonqz8_fi1BpLCndXQ-2" value="" style="rounded=0;whiteSpace=wrap;html=1;rotation=-90;fillColor=#f5f5f5;dashed=1;fontColor=#333333;strokeColor=#666666;" parent="1" vertex="1">
          <mxGeometry x="-71.19" y="233.04" width="378.87" height="128.75" as="geometry" />
        </mxCell>
        <mxCell id="egtonqz8_fi1BpLCndXQ-3" value="&lt;font style=&quot;font-size: 22px;&quot;&gt;Sources&lt;/font&gt;" style="rounded=0;whiteSpace=wrap;html=1;strokeColor=#666666;fillColor=#f5f5f5;fontColor=#333333;" parent="1" vertex="1">
          <mxGeometry x="71.12" y="80" width="94.25" height="40" as="geometry" />
        </mxCell>
        <mxCell id="egtonqz8_fi1BpLCndXQ-8" value="&lt;font style=&quot;font-size: 18px;&quot;&gt;Bronze Layer&lt;/font&gt;" style="rounded=1;whiteSpace=wrap;html=1;fillColor=#ffe6cc;strokeColor=#d79b00;fontStyle=1" parent="1" vertex="1">
          <mxGeometry x="263.41" y="70" width="154.44" height="40" as="geometry" />
        </mxCell>
        <mxCell id="egtonqz8_fi1BpLCndXQ-9" value="" style="rounded=1;whiteSpace=wrap;html=1;fillColor=none;strokeColor=#d79b00;" parent="1" vertex="1">
          <mxGeometry x="255.63" y="120" width="170" height="400" as="geometry" />
        </mxCell>
        <mxCell id="egtonqz8_fi1BpLCndXQ-26" value="" style="group" parent="1" vertex="1" connectable="0">
          <mxGeometry x="71.11999999999999" y="190.04" width="76.5" height="79.96000000000001" as="geometry" />
        </mxCell>
        <mxCell id="egtonqz8_fi1BpLCndXQ-30" value="" style="group" parent="egtonqz8_fi1BpLCndXQ-26" vertex="1" connectable="0">
          <mxGeometry width="76.5" height="79.96000000000001" as="geometry" />
        </mxCell>
        <mxCell id="egtonqz8_fi1BpLCndXQ-16" value="" style="image;aspect=fixed;html=1;points=[];align=center;fontSize=12;image=img/lib/azure2/general/Folder_Blank.svg;" parent="egtonqz8_fi1BpLCndXQ-30" vertex="1">
          <mxGeometry width="69" height="56.00000000000001" as="geometry" />
        </mxCell>
        <mxCell id="egtonqz8_fi1BpLCndXQ-17" value="" style="image;aspect=fixed;html=1;points=[];align=center;fontSize=12;image=img/lib/azure2/general/File.svg;" parent="egtonqz8_fi1BpLCndXQ-30" vertex="1">
          <mxGeometry x="50.5" y="30" width="26" height="32.04" as="geometry" />
        </mxCell>
        <mxCell id="egtonqz8_fi1BpLCndXQ-23" value="&lt;b&gt;CRM&lt;/b&gt;" style="rounded=0;whiteSpace=wrap;html=1;fillColor=none;strokeColor=none;" parent="egtonqz8_fi1BpLCndXQ-30" vertex="1">
          <mxGeometry x="3" y="60" width="67" height="19.96" as="geometry" />
        </mxCell>
        <mxCell id="egtonqz8_fi1BpLCndXQ-29" value="" style="group" parent="1" vertex="1" connectable="0">
          <mxGeometry x="79.99" y="386.21" width="76.5" height="77.96000000000001" as="geometry" />
        </mxCell>
        <mxCell id="egtonqz8_fi1BpLCndXQ-25" value="&lt;b&gt;ERP&lt;/b&gt;" style="rounded=0;whiteSpace=wrap;html=1;fillColor=none;strokeColor=none;" parent="egtonqz8_fi1BpLCndXQ-29" vertex="1">
          <mxGeometry x="2.5" y="50" width="65" height="27.96" as="geometry" />
        </mxCell>
        <mxCell id="egtonqz8_fi1BpLCndXQ-20" value="" style="image;aspect=fixed;html=1;points=[];align=center;fontSize=12;image=img/lib/azure2/general/Folder_Blank.svg;" parent="egtonqz8_fi1BpLCndXQ-29" vertex="1">
          <mxGeometry width="69" height="56.00000000000001" as="geometry" />
        </mxCell>
        <mxCell id="egtonqz8_fi1BpLCndXQ-21" value="" style="image;aspect=fixed;html=1;points=[];align=center;fontSize=12;image=img/lib/azure2/general/File.svg;" parent="egtonqz8_fi1BpLCndXQ-29" vertex="1">
          <mxGeometry x="50.5" y="30" width="26" height="32.04" as="geometry" />
        </mxCell>
        <mxCell id="lorJR-UMrL27Am822nbO-1" style="edgeStyle=orthogonalEdgeStyle;rounded=0;orthogonalLoop=1;jettySize=auto;html=1;entryX=0;entryY=0.5;entryDx=0;entryDy=0;" parent="1" source="IqCqouV3wbvGzKAtH-Mb-1" target="waYjzMqnJ5gFNkLADdIU-5" edge="1">
          <mxGeometry relative="1" as="geometry" />
        </mxCell>
        <mxCell id="IqCqouV3wbvGzKAtH-Mb-1" value="&lt;font style=&quot;font-size: 14px;&quot;&gt;crm_sales_details&lt;/font&gt;" style="rounded=1;whiteSpace=wrap;html=1;fillColor=#ffe6cc;strokeColor=#d79b00;fontStyle=1" parent="1" vertex="1">
          <mxGeometry x="273.45" y="150" width="134.37" height="30" as="geometry" />
        </mxCell>
        <mxCell id="lorJR-UMrL27Am822nbO-2" style="edgeStyle=orthogonalEdgeStyle;rounded=0;orthogonalLoop=1;jettySize=auto;html=1;entryX=0;entryY=0.5;entryDx=0;entryDy=0;" parent="1" source="IqCqouV3wbvGzKAtH-Mb-2" target="waYjzMqnJ5gFNkLADdIU-6" edge="1">
          <mxGeometry relative="1" as="geometry" />
        </mxCell>
        <mxCell id="IqCqouV3wbvGzKAtH-Mb-2" value="&lt;font style=&quot;font-size: 14px;&quot;&gt;crm_cust_info&lt;/font&gt;" style="rounded=1;whiteSpace=wrap;html=1;fillColor=#ffe6cc;strokeColor=#d79b00;fontStyle=1" parent="1" vertex="1">
          <mxGeometry x="273.45" y="203.04" width="134.37" height="30" as="geometry" />
        </mxCell>
        <mxCell id="lorJR-UMrL27Am822nbO-3" style="edgeStyle=orthogonalEdgeStyle;rounded=0;orthogonalLoop=1;jettySize=auto;html=1;" parent="1" source="IqCqouV3wbvGzKAtH-Mb-3" target="waYjzMqnJ5gFNkLADdIU-7" edge="1">
          <mxGeometry relative="1" as="geometry">
            <mxPoint x="450" y="275" as="targetPoint" />
          </mxGeometry>
        </mxCell>
        <mxCell id="IqCqouV3wbvGzKAtH-Mb-3" value="&lt;font style=&quot;font-size: 14px;&quot;&gt;crm_prd_info&lt;/font&gt;" style="rounded=1;whiteSpace=wrap;html=1;fillColor=#ffe6cc;strokeColor=#d79b00;fontStyle=1" parent="1" vertex="1">
          <mxGeometry x="273.45" y="260" width="134.37" height="30" as="geometry" />
        </mxCell>
        <mxCell id="IqCqouV3wbvGzKAtH-Mb-9" style="edgeStyle=orthogonalEdgeStyle;rounded=0;orthogonalLoop=1;jettySize=auto;html=1;entryX=0;entryY=0.5;entryDx=0;entryDy=0;" parent="1" source="egtonqz8_fi1BpLCndXQ-16" target="IqCqouV3wbvGzKAtH-Mb-2" edge="1">
          <mxGeometry relative="1" as="geometry" />
        </mxCell>
        <mxCell id="IqCqouV3wbvGzKAtH-Mb-10" style="edgeStyle=orthogonalEdgeStyle;rounded=0;orthogonalLoop=1;jettySize=auto;html=1;entryX=0;entryY=0.5;entryDx=0;entryDy=0;" parent="1" source="egtonqz8_fi1BpLCndXQ-16" target="IqCqouV3wbvGzKAtH-Mb-1" edge="1">
          <mxGeometry relative="1" as="geometry" />
        </mxCell>
        <mxCell id="IqCqouV3wbvGzKAtH-Mb-11" style="edgeStyle=orthogonalEdgeStyle;rounded=0;orthogonalLoop=1;jettySize=auto;html=1;entryX=0;entryY=0.5;entryDx=0;entryDy=0;" parent="1" source="egtonqz8_fi1BpLCndXQ-16" target="IqCqouV3wbvGzKAtH-Mb-3" edge="1">
          <mxGeometry relative="1" as="geometry" />
        </mxCell>
        <mxCell id="lorJR-UMrL27Am822nbO-4" style="edgeStyle=orthogonalEdgeStyle;rounded=0;orthogonalLoop=1;jettySize=auto;html=1;entryX=0;entryY=0.5;entryDx=0;entryDy=0;" parent="1" source="IqCqouV3wbvGzKAtH-Mb-12" target="waYjzMqnJ5gFNkLADdIU-8" edge="1">
          <mxGeometry relative="1" as="geometry" />
        </mxCell>
        <mxCell id="IqCqouV3wbvGzKAtH-Mb-12" value="&lt;font style=&quot;font-size: 14px;&quot;&gt;erp_cust_az12&lt;/font&gt;" style="rounded=1;whiteSpace=wrap;html=1;fillColor=#ffe6cc;strokeColor=#d79b00;fontStyle=1" parent="1" vertex="1">
          <mxGeometry x="273.45" y="337.96" width="134.37" height="30" as="geometry" />
        </mxCell>
        <mxCell id="lorJR-UMrL27Am822nbO-5" style="edgeStyle=orthogonalEdgeStyle;rounded=0;orthogonalLoop=1;jettySize=auto;html=1;entryX=0;entryY=0.5;entryDx=0;entryDy=0;" parent="1" source="IqCqouV3wbvGzKAtH-Mb-13" target="waYjzMqnJ5gFNkLADdIU-9" edge="1">
          <mxGeometry relative="1" as="geometry" />
        </mxCell>
        <mxCell id="IqCqouV3wbvGzKAtH-Mb-13" value="&lt;font style=&quot;font-size: 14px;&quot;&gt;erp_loc_a101&lt;/font&gt;" style="rounded=1;whiteSpace=wrap;html=1;fillColor=#ffe6cc;strokeColor=#d79b00;fontStyle=1" parent="1" vertex="1">
          <mxGeometry x="273.45" y="397.96" width="134.37" height="30" as="geometry" />
        </mxCell>
        <mxCell id="lorJR-UMrL27Am822nbO-6" style="edgeStyle=orthogonalEdgeStyle;rounded=0;orthogonalLoop=1;jettySize=auto;html=1;" parent="1" source="IqCqouV3wbvGzKAtH-Mb-14" target="waYjzMqnJ5gFNkLADdIU-10" edge="1">
          <mxGeometry relative="1" as="geometry" />
        </mxCell>
        <mxCell id="IqCqouV3wbvGzKAtH-Mb-14" value="&lt;font style=&quot;font-size: 14px;&quot;&gt;erp_px_cat_g1v2&lt;/font&gt;" style="rounded=1;whiteSpace=wrap;html=1;fillColor=#ffe6cc;strokeColor=#d79b00;fontStyle=1" parent="1" vertex="1">
          <mxGeometry x="273.45" y="452.98" width="134.37" height="30" as="geometry" />
        </mxCell>
        <mxCell id="IqCqouV3wbvGzKAtH-Mb-15" style="edgeStyle=orthogonalEdgeStyle;rounded=0;orthogonalLoop=1;jettySize=auto;html=1;" parent="1" source="egtonqz8_fi1BpLCndXQ-20" edge="1">
          <mxGeometry relative="1" as="geometry">
            <mxPoint x="270" y="414" as="targetPoint" />
          </mxGeometry>
        </mxCell>
        <mxCell id="IqCqouV3wbvGzKAtH-Mb-16" style="edgeStyle=orthogonalEdgeStyle;rounded=0;orthogonalLoop=1;jettySize=auto;html=1;entryX=0;entryY=0.75;entryDx=0;entryDy=0;" parent="1" source="egtonqz8_fi1BpLCndXQ-20" target="IqCqouV3wbvGzKAtH-Mb-12" edge="1">
          <mxGeometry relative="1" as="geometry" />
        </mxCell>
        <mxCell id="IqCqouV3wbvGzKAtH-Mb-17" style="edgeStyle=orthogonalEdgeStyle;rounded=0;orthogonalLoop=1;jettySize=auto;html=1;entryX=0;entryY=0.5;entryDx=0;entryDy=0;" parent="1" source="egtonqz8_fi1BpLCndXQ-20" target="IqCqouV3wbvGzKAtH-Mb-14" edge="1">
          <mxGeometry relative="1" as="geometry" />
        </mxCell>
        <mxCell id="waYjzMqnJ5gFNkLADdIU-3" value="&lt;font style=&quot;font-size: 18px;&quot;&gt;Silver Layer&lt;/font&gt;" style="rounded=1;whiteSpace=wrap;html=1;fillColor=#f5f5f5;strokeColor=#666666;fontStyle=1;fontColor=#333333;" parent="1" vertex="1">
          <mxGeometry x="507.78" y="70" width="154.44" height="40" as="geometry" />
        </mxCell>
        <mxCell id="waYjzMqnJ5gFNkLADdIU-4" value="" style="rounded=1;whiteSpace=wrap;html=1;fillColor=none;strokeColor=#666666;fontColor=#333333;" parent="1" vertex="1">
          <mxGeometry x="500" y="120" width="170" height="400" as="geometry" />
        </mxCell>
        <mxCell id="y_YHAwqrDOroFl6-keFV-2" style="edgeStyle=orthogonalEdgeStyle;rounded=0;orthogonalLoop=1;jettySize=auto;html=1;entryX=0;entryY=0.5;entryDx=0;entryDy=0;" edge="1" parent="1" source="waYjzMqnJ5gFNkLADdIU-5" target="waYjzMqnJ5gFNkLADdIU-17">
          <mxGeometry relative="1" as="geometry" />
        </mxCell>
        <mxCell id="waYjzMqnJ5gFNkLADdIU-5" value="&lt;font style=&quot;font-size: 14px;&quot;&gt;crm_sales_details&lt;/font&gt;" style="rounded=1;whiteSpace=wrap;html=1;fillColor=#f5f5f5;strokeColor=#666666;fontStyle=1;fontColor=#333333;" parent="1" vertex="1">
          <mxGeometry x="517.8199999999999" y="150" width="134.37" height="30" as="geometry" />
        </mxCell>
        <mxCell id="y_YHAwqrDOroFl6-keFV-3" style="edgeStyle=orthogonalEdgeStyle;rounded=0;orthogonalLoop=1;jettySize=auto;html=1;entryX=0;entryY=0.5;entryDx=0;entryDy=0;" edge="1" parent="1" source="waYjzMqnJ5gFNkLADdIU-6" target="waYjzMqnJ5gFNkLADdIU-15">
          <mxGeometry relative="1" as="geometry">
            <Array as="points">
              <mxPoint x="700" y="218" />
              <mxPoint x="700" y="413" />
            </Array>
          </mxGeometry>
        </mxCell>
        <mxCell id="waYjzMqnJ5gFNkLADdIU-6" value="&lt;font style=&quot;font-size: 14px;&quot;&gt;crm_cust_info&lt;/font&gt;" style="rounded=1;whiteSpace=wrap;html=1;fillColor=#f5f5f5;strokeColor=#666666;fontStyle=1;fontColor=#333333;" parent="1" vertex="1">
          <mxGeometry x="517.8199999999999" y="203.03999999999996" width="134.37" height="30" as="geometry" />
        </mxCell>
        <mxCell id="y_YHAwqrDOroFl6-keFV-4" style="edgeStyle=orthogonalEdgeStyle;rounded=0;orthogonalLoop=1;jettySize=auto;html=1;entryX=0;entryY=0.5;entryDx=0;entryDy=0;" edge="1" parent="1" source="waYjzMqnJ5gFNkLADdIU-7" target="waYjzMqnJ5gFNkLADdIU-16">
          <mxGeometry relative="1" as="geometry">
            <Array as="points">
              <mxPoint x="730" y="275" />
              <mxPoint x="730" y="275" />
            </Array>
          </mxGeometry>
        </mxCell>
        <mxCell id="waYjzMqnJ5gFNkLADdIU-7" value="&lt;font style=&quot;font-size: 14px;&quot;&gt;crm_prd_info&lt;/font&gt;" style="rounded=1;whiteSpace=wrap;html=1;fillColor=#f5f5f5;strokeColor=#666666;fontStyle=1;fontColor=#333333;" parent="1" vertex="1">
          <mxGeometry x="517.8199999999999" y="260" width="134.37" height="30" as="geometry" />
        </mxCell>
        <mxCell id="y_YHAwqrDOroFl6-keFV-5" style="edgeStyle=orthogonalEdgeStyle;rounded=0;orthogonalLoop=1;jettySize=auto;html=1;entryX=0;entryY=0.5;entryDx=0;entryDy=0;" edge="1" parent="1" source="waYjzMqnJ5gFNkLADdIU-8" target="waYjzMqnJ5gFNkLADdIU-15">
          <mxGeometry relative="1" as="geometry">
            <Array as="points">
              <mxPoint x="700" y="353" />
              <mxPoint x="700" y="413" />
            </Array>
          </mxGeometry>
        </mxCell>
        <mxCell id="waYjzMqnJ5gFNkLADdIU-8" value="&lt;font style=&quot;font-size: 14px;&quot;&gt;erp_cust_az12&lt;/font&gt;" style="rounded=1;whiteSpace=wrap;html=1;fillColor=#f5f5f5;strokeColor=#666666;fontStyle=1;fontColor=#333333;" parent="1" vertex="1">
          <mxGeometry x="517.8199999999999" y="337.96" width="134.37" height="30" as="geometry" />
        </mxCell>
        <mxCell id="y_YHAwqrDOroFl6-keFV-6" style="edgeStyle=orthogonalEdgeStyle;rounded=0;orthogonalLoop=1;jettySize=auto;html=1;entryX=0;entryY=0.5;entryDx=0;entryDy=0;" edge="1" parent="1" source="waYjzMqnJ5gFNkLADdIU-9" target="waYjzMqnJ5gFNkLADdIU-15">
          <mxGeometry relative="1" as="geometry">
            <Array as="points">
              <mxPoint x="730" y="413" />
              <mxPoint x="730" y="413" />
            </Array>
          </mxGeometry>
        </mxCell>
        <mxCell id="waYjzMqnJ5gFNkLADdIU-9" value="&lt;font style=&quot;font-size: 14px;&quot;&gt;erp_loc_a101&lt;/font&gt;" style="rounded=1;whiteSpace=wrap;html=1;fillColor=#f5f5f5;strokeColor=#666666;fontStyle=1;fontColor=#333333;" parent="1" vertex="1">
          <mxGeometry x="517.8199999999999" y="397.96000000000004" width="134.37" height="30" as="geometry" />
        </mxCell>
        <mxCell id="y_YHAwqrDOroFl6-keFV-8" style="edgeStyle=orthogonalEdgeStyle;rounded=0;orthogonalLoop=1;jettySize=auto;html=1;entryX=0;entryY=0.5;entryDx=0;entryDy=0;" edge="1" parent="1" source="waYjzMqnJ5gFNkLADdIU-10" target="waYjzMqnJ5gFNkLADdIU-16">
          <mxGeometry relative="1" as="geometry">
            <Array as="points">
              <mxPoint x="730" y="468" />
              <mxPoint x="730" y="275" />
            </Array>
          </mxGeometry>
        </mxCell>
        <mxCell id="waYjzMqnJ5gFNkLADdIU-10" value="&lt;font style=&quot;font-size: 14px;&quot;&gt;erp_px_cat_g1v2&lt;/font&gt;" style="rounded=1;whiteSpace=wrap;html=1;fillColor=#f5f5f5;strokeColor=#666666;fontStyle=1;fontColor=#333333;" parent="1" vertex="1">
          <mxGeometry x="517.8199999999999" y="452.98" width="134.37" height="30" as="geometry" />
        </mxCell>
        <mxCell id="waYjzMqnJ5gFNkLADdIU-11" value="&lt;font style=&quot;font-size: 18px;&quot;&gt;Gold Layer&lt;/font&gt;" style="rounded=1;whiteSpace=wrap;html=1;fillColor=#fff2cc;strokeColor=#d6b656;fontStyle=1" parent="1" vertex="1">
          <mxGeometry x="753.78" y="70" width="154.44" height="40" as="geometry" />
        </mxCell>
        <mxCell id="waYjzMqnJ5gFNkLADdIU-12" value="" style="rounded=1;whiteSpace=wrap;html=1;fillColor=none;strokeColor=#d6b656;" parent="1" vertex="1">
          <mxGeometry x="746" y="120" width="170" height="400" as="geometry" />
        </mxCell>
        <mxCell id="waYjzMqnJ5gFNkLADdIU-15" value="&lt;font style=&quot;font-size: 14px;&quot;&gt;dim_customers&lt;/font&gt;" style="rounded=1;whiteSpace=wrap;html=1;fillColor=#fff2cc;strokeColor=#d6b656;fontStyle=1" parent="1" vertex="1">
          <mxGeometry x="763.8199999999999" y="397.96" width="134.37" height="30" as="geometry" />
        </mxCell>
        <mxCell id="waYjzMqnJ5gFNkLADdIU-16" value="&lt;font style=&quot;font-size: 14px;&quot;&gt;dim_products&lt;/font&gt;" style="rounded=1;whiteSpace=wrap;html=1;fillColor=#fff2cc;strokeColor=#d6b656;fontStyle=1" parent="1" vertex="1">
          <mxGeometry x="763.8199999999999" y="260" width="134.37" height="30" as="geometry" />
        </mxCell>
        <mxCell id="waYjzMqnJ5gFNkLADdIU-17" value="&lt;font style=&quot;font-size: 14px;&quot;&gt;fact_sales&lt;/font&gt;" style="rounded=1;whiteSpace=wrap;html=1;fillColor=#fff2cc;strokeColor=#d6b656;fontStyle=1" parent="1" vertex="1">
          <mxGeometry x="763.8199999999999" y="150.00000000000006" width="134.37" height="30" as="geometry" />
        </mxCell>
        <mxCell id="y_YHAwqrDOroFl6-keFV-9" value="&lt;h1 style=&quot;margin-top: 0px;&quot;&gt;Data Flow Diagram&lt;/h1&gt;" style="text;html=1;whiteSpace=wrap;overflow=hidden;rounded=0;" vertex="1" parent="1">
          <mxGeometry x="50" y="10" width="230" height="50" as="geometry" />
        </mxCell>
      </root>
    </mxGraphModel>
  </diagram>
</mxfile>
